<?xml version="1.0" standalone="no"?>
<!DOCTYPE svg PUBLIC "-//W3C//DTD SVG 20010904//EN"
 "http://www.w3.org/TR/2001/REC-SVG-20010904/DTD/svg10.dtd">
<svg version="1.0" xmlns="http://www.w3.org/2000/svg"
 width="16.000000pt" height="16.000000pt" viewBox="0 0 16.000000 16.000000"
 preserveAspectRatio="xMidYMid meet">
<metadata>
Created by potrace 1.11, written by Peter Selinger 2001-2013
</metadata>
<g transform="translate(0.000000,16.000000) scale(0.002878,-0.002878)"
fill="#000000" stroke="none">
<path d="M0 4020 c0 -1055 1 -1118 18 -1125 35 -16 42 -14 29 5 -6 10 -15 16
-19 14 -10 -6 -10 -3 -13 59 -1 26 1 47 6 47 5 0 6 7 3 15 -4 8 1 27 11 41 9
14 14 28 11 31 -3 3 -8 -2 -12 -11 -3 -9 -10 -16 -15 -16 -15 0 -10 28 9 50 9
11 18 28 18 38 1 9 5 26 10 36 6 16 4 18 -9 13 -22 -8 -22 -7 14 59 18 34 25
54 16 51 -19 -7 -18 24 2 47 13 16 13 18 1 11 -8 -5 -2 8 14 29 21 28 29 52
34 99 l5 62 126 125 c143 142 222 198 322 230 l69 23 0 153 0 154 -28 -5 c-15
-2 -53 -7 -84 -10 -98 -11 -169 -54 -296 -183 -62 -63 -115 -112 -118 -109 -7
6 18 57 28 57 4 0 8 4 8 10 0 5 -7 7 -15 4 -12 -5 -13 -1 -4 24 6 17 17 36 25
42 10 9 11 17 3 31 -6 13 -6 19 1 19 5 0 10 5 10 11 0 7 8 18 17 25 13 10 14
13 4 14 -11 0 -10 5 4 20 13 14 14 20 5 20 -9 0 -7 5 6 16 10 8 13 13 6 9 -21
-11 -13 10 13 35 26 25 33 65 13 73 -8 3 -1 9 15 16 33 13 36 21 5 13 -20 -5
-18 1 16 44 59 74 65 82 44 66 -36 -29 -38 -5 -3 31 21 21 35 40 32 43 -2 2
-10 -2 -17 -11 -16 -19 -25 -19 -45 1 -13 14 -18 14 -32 2 -13 -10 -13 -7 3
17 18 30 18 30 -1 15 -13 -10 -16 -11 -11 -2 4 7 19 17 32 22 13 6 24 17 23
27 0 11 -3 13 -6 5 -2 -6 -9 -10 -14 -6 -5 3 -4 14 3 27 15 26 37 87 32 87 -2
0 -19 -14 -39 -31 -35 -31 -48 -30 -19 2 12 13 12 19 3 25 -8 5 -10 3 -4 -6 5
-9 4 -11 -3 -6 -7 4 -12 16 -12 27 0 11 4 17 10 14 5 -3 18 -1 27 4 17 10 17
10 1 11 -23 0 -23 28 -1 52 16 18 16 18 -1 12 -16 -6 -17 -5 -5 15 8 11 17 21
21 21 5 0 8 5 8 11 0 5 -17 -3 -37 -18 -38 -28 -38 -28 -22 -3 9 14 19 43 23
65 10 54 28 95 43 95 7 0 13 7 13 16 0 14 -3 14 -15 4 -10 -8 -15 -9 -15 -2 0
6 7 15 16 20 10 6 14 14 9 22 -6 9 -13 7 -26 -11 -17 -22 -19 -22 -16 -4 1 11
6 26 11 33 6 10 -24 12 -143 11 l-151 -1 0 -1118z m245 910 c3 -5 1 -10 -4
-10 -6 0 -11 5 -11 10 0 6 2 10 4 10 3 0 8 -4 11 -10z m55 -214 c0 -9 -32 -36
-42 -36 -6 0 0 9 13 20 25 21 29 23 29 16z m249 -690 c-11 -9 -63 -17 -54 -8
6 6 19 12 30 14 20 4 32 1 24 -6z"/>
<path d="M5126 5119 c17 -19 17 -20 -2 -14 -17 6 -18 5 -2 -7 9 -8 16 -21 16
-29 -3 -47 3 -68 22 -74 18 -6 20 -12 13 -43 -10 -54 -7 -110 7 -127 12 -14
15 -14 30 0 10 9 20 13 23 8 3 -4 -5 -16 -18 -25 -21 -16 -23 -15 -56 13 -19
16 -44 39 -56 51 -22 22 -93 51 -93 38 0 -4 10 -12 23 -19 22 -11 22 -11 -3
-5 -14 3 -32 8 -41 10 -10 3 -18 -3 -22 -15 -3 -14 1 -21 16 -25 12 -3 18 -8
14 -12 -3 -4 -20 -1 -36 6 -17 6 -36 10 -42 8 -7 -2 15 -12 49 -22 60 -16 90
-35 35 -21 -16 4 -43 8 -61 10 -36 3 -47 10 -47 28 0 7 -12 13 -28 15 -15 2
-25 8 -21 13 3 5 -9 16 -27 23 -33 14 -33 14 -9 19 21 4 20 5 -5 4 -17 -1 -35
1 -40 5 -6 3 -27 5 -47 4 -20 0 -36 3 -35 9 2 10 -6 12 -60 14 -69 2 -26 11
84 17 74 4 117 2 131 -5 18 -9 21 -9 16 3 -5 13 -41 24 -104 32 -19 2 -22 1
-10 -7 11 -7 6 -9 -17 -4 -18 4 -40 2 -50 -3 -9 -6 -26 -7 -37 -2 -12 4 -34 2
-50 -5 l-29 -12 24 -15 c13 -9 31 -19 41 -24 11 -6 -8 -9 -55 -10 l-72 -2 40
13 c34 11 37 13 15 16 -14 1 -32 3 -40 5 -8 1 -24 3 -35 4 -18 1 -17 2 4 11
14 5 30 8 37 5 8 -3 11 1 7 10 -4 11 -1 14 10 12 9 -2 16 2 16 7 1 9 -6 10
-40 6 -5 0 -7 -6 -3 -13 5 -8 0 -9 -17 -5 -13 4 -28 7 -32 7 -5 0 -5 5 -1 12
5 8 0 9 -17 4 -13 -4 -35 -10 -49 -13 -14 -4 -31 -13 -38 -22 -10 -14 -11 -13
-5 4 6 18 5 18 -10 6 -9 -7 -14 -17 -11 -22 3 -5 -3 -6 -12 -2 -11 4 -15 2
-11 -4 8 -13 -16 -25 -57 -30 l-29 -3 24 18 c13 10 39 24 56 31 18 7 30 17 27
22 -3 5 4 9 15 9 11 0 22 4 25 9 3 4 16 6 30 4 13 -3 26 -1 29 4 7 11 -9 14
-70 16 -31 1 -39 4 -32 14 8 9 5 9 -15 0 -16 -8 -21 -14 -13 -19 8 -5 4 -10
-10 -14 -13 -4 -23 -10 -23 -14 0 -5 -9 -12 -20 -15 -11 -3 -20 -12 -20 -18
-1 -15 -39 -62 -45 -55 -3 3 4 13 15 23 11 10 20 23 20 30 0 15 54 70 104 107
43 31 37 36 -18 13 -33 -14 -36 -14 -36 2 -1 17 -1 17 -14 1 -14 -19 -32 -25
-21 -8 10 15 -29 12 -51 -5 -19 -14 -19 -14 0 -15 26 0 13 -12 -16 -15 -39 -4
-41 -5 -35 -11 10 -11 -13 -45 -25 -38 -7 5 -5 12 7 21 11 7 14 13 8 13 -7 0
-15 -5 -19 -11 -3 -6 -15 -8 -27 -5 -14 3 -30 -5 -55 -30 -18 -18 -36 -34 -39
-34 -24 0 -44 -79 -20 -81 6 0 2 -4 -10 -9 -13 -5 -23 -17 -23 -27 -1 -10 -12
-38 -25 -63 -26 -48 -32 -49 -14 -3 11 29 19 73 13 73 -7 0 -34 -73 -34 -92 0
-10 -4 -17 -9 -14 -5 3 -14 -8 -20 -26 -15 -42 -13 -48 5 -18 l15 25 -5 -32
c-3 -19 -1 -33 4 -33 6 0 10 9 10 19 0 11 6 26 14 33 7 8 26 40 41 71 16 32
35 63 43 70 8 6 0 -17 -17 -51 -17 -35 -29 -67 -25 -73 9 -15 -16 -70 -29 -62
-6 4 -7 1 -3 -6 5 -7 0 -21 -9 -31 -10 -11 -15 -26 -12 -35 8 -20 3 -19 -19 3
-15 15 -17 15 -12 1 4 -9 0 -29 -9 -45 -17 -33 -28 -111 -11 -81 5 10 7 25 4
33 -3 8 -1 14 4 14 6 0 10 7 10 15 0 8 6 12 13 10 17 -6 51 24 71 63 9 18 20
32 24 32 4 0 16 14 26 31 10 17 21 28 24 25 3 -4 0 -12 -6 -18 -19 -19 -14
-32 6 -17 13 10 -20 -31 -48 -61 -3 -3 -12 -14 -20 -25 -14 -19 -14 -19 5 -4
38 31 49 34 42 13 -7 -19 -7 -19 8 0 10 13 26 19 50 18 21 -1 33 3 30 8 -3 5
0 8 7 5 7 -3 24 1 38 8 21 10 27 10 42 -5 14 -14 21 -15 42 -5 13 6 23 14 21
17 -2 3 14 6 35 7 21 1 52 9 69 17 16 9 38 16 47 16 16 0 16 -2 -2 -16 -18
-15 -18 -15 3 -4 12 5 25 15 28 20 16 26 73 42 164 47 128 5 127 5 186 30 6 3
-3 -7 -18 -21 -15 -14 -24 -26 -19 -26 5 0 15 7 22 15 14 17 40 20 40 5 0 -6
14 -3 31 6 25 13 37 14 56 5 14 -6 29 -9 34 -6 5 4 9 0 9 -7 0 -10 2 -10 9 1
5 8 11 9 15 3 3 -5 -13 -17 -35 -26 -23 -9 -39 -19 -37 -22 3 -2 17 0 32 6 34
13 56 13 36 0 -10 -6 -2 -8 25 -4 34 6 38 5 25 -7 -9 -8 -21 -21 -27 -29 -10
-13 -6 -15 20 -15 21 0 31 -5 29 -13 -2 -10 2 -10 17 -2 11 5 29 10 41 10 12
0 18 5 15 10 -3 6 3 10 14 10 12 0 21 4 21 10 0 6 9 6 23 1 13 -5 21 -15 19
-26 -2 -12 1 -16 11 -12 17 6 32 -19 17 -28 -6 -4 -10 -1 -10 5 0 7 -8 9 -21
5 -12 -4 -19 -3 -16 1 3 5 -8 9 -25 10 -20 1 -25 -2 -16 -7 10 -6 8 -9 -7 -9
-11 0 -27 -5 -35 -11 -12 -8 -10 -9 9 -4 15 5 21 3 17 -3 -3 -5 1 -13 10 -16
8 -3 13 -10 10 -14 -3 -5 5 -7 17 -5 12 2 33 -6 47 -17 23 -18 24 -20 5 -20
-12 0 -27 6 -35 13 -12 10 -12 9 -1 -5 7 -9 26 -20 42 -23 16 -4 27 -11 23
-16 -3 -5 -1 -9 5 -9 6 0 15 -8 20 -18 7 -14 6 -19 -4 -19 -8 0 -11 5 -8 10 3
6 1 7 -5 3 -6 -4 -23 -4 -37 0 -24 6 -25 7 -8 21 16 13 16 13 -5 3 -23 -11
-22 -30 2 -30 7 0 24 -8 37 -18 16 -13 73 -26 179 -42 85 -12 167 -25 183 -28
l27 -4 0 401 0 402 -226 -1 c-224 -1 -226 -1 -208 -21z m-940 -96 c-24 -21
-44 -45 -43 -53 1 -8 -6 -16 -15 -18 -12 -2 -15 2 -12 15 8 27 25 47 64 70 54
33 56 27 6 -14z m169 7 c-3 -5 -13 -10 -21 -10 -8 0 -12 5 -9 10 3 6 13 10 21
10 8 0 12 -4 9 -10z m58 -62 c14 -1 24 -4 22 -7 -3 -2 1 -11 8 -19 10 -13 9
-14 -10 -2 -19 12 -26 11 -56 -4 -18 -11 -40 -16 -48 -13 -10 4 -9 6 4 6 9 1
17 8 17 17 0 10 6 14 14 11 10 -4 12 1 9 16 -3 15 -2 18 4 10 5 -7 21 -14 36
-15z m-349 1 c-3 -5 -13 -8 -22 -7 -9 2 -16 -2 -15 -9 2 -6 -7 -15 -19 -19
-12 -3 -30 -16 -40 -28 -19 -21 -19 -21 -3 11 10 22 20 30 30 27 10 -4 15 0
15 13 0 13 8 19 30 19 16 1 27 -2 24 -7z m12 -37 c-17 -16 -18 -16 -5 5 7 12
15 20 18 17 3 -2 -3 -12 -13 -22z m587 -39 c-7 -2 -19 -2 -25 0 -7 3 -2 5 12
5 14 0 19 -2 13 -5z m427 -35 c0 -6 -7 -5 -15 2 -8 7 -15 17 -15 22 0 6 7 5
15 -2 8 -7 15 -17 15 -22z m-1059 -21 c-10 -9 -11 -8 -5 6 3 10 9 15 12 12 3
-3 0 -11 -7 -18z m1004 3 c3 -5 2 -10 -4 -10 -5 0 -13 5 -16 10 -3 6 -2 10 4
10 5 0 13 -4 16 -10z m-1040 -76 c-13 -27 -24 -46 -24 -41 -1 11 41 98 45 94
2 -2 -7 -26 -21 -53z m1099 37 c3 -4 -6 -6 -19 -3 -14 2 -25 6 -25 8 0 8 39 4
44 -5z m13 -19 c20 -2 63 -62 43 -62 -8 0 -24 30 -22 41 0 3 -11 5 -26 5 -58
1 -82 4 -82 12 0 6 28 8 87 4z m-430 -36 c0 -8 -6 -12 -15 -9 -11 5 -11 7 0
14 7 5 13 9 14 9 0 0 1 -6 1 -14z m389 -1 c26 -19 -1 -20 -36 0 -23 13 -23 14
-4 15 11 0 29 -7 40 -15z m-446 -10 c-7 -8 -17 -15 -23 -15 -6 0 -2 7 9 15 25
19 30 19 14 0z m-568 -27 c-8 -8 -9 -4 -5 13 4 13 8 18 11 10 2 -7 -1 -18 -6
-23z m-88 3 c3 -4 -4 -17 -15 -27 -18 -16 -19 -16 -13 -1 3 9 10 17 16 17 5 0
6 5 3 10 -3 6 -4 10 -1 10 3 0 7 -4 10 -9z m1146 0 c0 -6 -4 -12 -8 -15 -5 -3
-9 1 -9 9 0 8 4 15 9 15 4 0 8 -4 8 -9z m45 -41 c3 -6 -1 -7 -9 -4 -18 7 -21
14 -7 14 6 0 13 -4 16 -10z m-55 -106 c0 -17 -22 -14 -28 4 -2 7 3 12 12 12 9
0 16 -7 16 -16z m95 -4 c3 -5 1 -10 -4 -10 -6 0 -11 5 -11 10 0 6 2 10 4 10 3
0 8 -4 11 -10z"/>
<path d="M3992 5104 c-7 -8 -21 -14 -32 -14 -21 0 -33 -15 -35 -42 -1 -15 1
-16 14 -5 9 6 20 18 24 25 4 6 14 12 21 12 8 0 17 7 20 16 9 22 4 25 -12 8z"/>
<path d="M4115 5074 c-11 -8 -25 -12 -32 -10 -15 6 -27 -10 -14 -18 12 -8 72
14 66 24 -3 5 1 11 7 13 7 3 9 6 3 6 -5 0 -19 -6 -30 -15z"/>
<path d="M4030 5066 c-8 -6 -28 -27 -45 -46 l-30 -35 34 30 c57 49 64 56 60
60 -2 2 -11 -2 -19 -9z"/>
<path d="M4998 5058 c5 -5 16 -8 23 -6 8 3 3 7 -10 11 -17 4 -21 3 -13 -5z"/>
<path d="M4698 5053 c7 -3 16 -2 19 1 4 3 -2 6 -13 5 -11 0 -14 -3 -6 -6z"/>
<path d="M4758 5023 c6 -2 18 -2 25 0 6 3 1 5 -13 5 -14 0 -19 -2 -12 -5z"/>
<path d="M4812 5023 c-6 -3 -9 -9 -6 -15 4 -7 9 -6 13 1 5 7 19 1 41 -19 18
-16 36 -28 38 -25 3 3 3 6 1 8 -43 35 -77 54 -87 50z"/>
<path d="M320 5009 c0 -5 5 -7 10 -4 6 3 10 8 10 11 0 2 -4 4 -10 4 -5 0 -10
-5 -10 -11z"/>
<path d="M296 4993 c-4 -9 -3 -20 2 -25 4 -4 9 4 10 17 2 29 -3 32 -12 8z"/>
<path d="M5070 4990 c8 -5 20 -10 25 -10 6 0 3 5 -5 10 -8 5 -19 10 -25 10 -5
0 -3 -5 5 -10z"/>
<path d="M5138 4977 c-3 -7 2 -23 10 -37 13 -23 13 -23 9 -2 -3 12 -1 22 4 22
14 0 10 17 -5 23 -8 3 -16 0 -18 -6z"/>
<path d="M3772 4960 c0 -14 2 -19 5 -12 2 6 2 18 0 25 -3 6 -5 1 -5 -13z"/>
<path d="M285 4939 c-4 -6 -5 -12 -2 -15 2 -3 7 2 10 11 7 17 1 20 -8 4z"/>
<path d="M4870 4941 c0 -12 28 -22 35 -12 3 5 -2 12 -11 15 -21 8 -24 8 -24
-3z"/>
<path d="M3855 4930 c-3 -5 -1 -10 4 -10 6 0 11 5 11 10 0 6 -2 10 -4 10 -3 0
-8 -4 -11 -10z"/>
<path d="M4850 4901 c0 -14 69 -23 88 -12 15 9 14 11 -8 12 -14 1 -37 3 -52 5
-16 1 -28 -1 -28 -5z"/>
<path d="M3748 4805 c-2 -19 0 -41 4 -48 4 -7 8 9 8 36 0 55 -6 62 -12 12z"/>
<path d="M3822 4803 c-7 -12 -12 -33 -12 -47 0 -13 -4 -26 -9 -28 -5 -1 -12
-32 -15 -68 l-6 -65 15 60 c8 33 18 76 21 95 4 19 11 38 17 41 5 4 7 13 5 20
-3 10 -8 7 -16 -8z"/>
<path d="M2352 4713 c44 -46 71 -83 82 -113 8 -25 15 -39 16 -31 0 8 3 12 6 8
3 -3 1 -14 -4 -24 -12 -20 -10 -22 -31 48 -11 33 -66 87 -78 76 -2 -3 7 -13
22 -23 22 -14 53 -54 42 -54 -2 0 -15 9 -28 21 -13 12 -33 27 -43 35 -16 11
-17 16 -6 29 7 8 11 15 9 16 -31 6 -38 6 -34 -2 7 -11 -39 -23 -65 -16 -11 3
-18 1 -15 -3 3 -5 -1 -11 -7 -13 -7 -3 4 -3 24 0 39 6 86 -16 122 -56 18 -20
18 -20 -20 0 -21 10 -42 26 -47 34 -9 16 -52 21 -61 6 -3 -4 5 -6 18 -4 13 3
27 -1 31 -8 6 -9 2 -11 -13 -7 -12 4 -22 2 -22 -3 0 -5 6 -9 13 -9 6 0 21 -8
32 -16 19 -16 19 -16 -5 -9 -14 4 -38 13 -55 20 -23 10 -42 11 -83 3 -34 -7
-49 -14 -41 -19 13 -8 2 -14 -50 -31 -8 -2 14 -16 50 -30 64 -26 64 -26 25
-26 -26 0 -34 3 -25 9 11 7 8 9 -8 9 -13 0 -23 -5 -23 -12 0 -6 -3 -9 -6 -6
-3 3 -29 0 -57 -8 -29 -8 -70 -14 -92 -14 -40 -1 -40 -1 -15 -15 l25 -14 -33
-1 c-22 0 -31 -4 -26 -11 4 -7 28 -9 68 -5 40 3 54 2 41 -4 -11 -5 -33 -9 -48
-9 -16 -1 -26 -5 -22 -11 4 -6 -15 -10 -51 -10 -103 0 -52 -7 101 -15 83 -3
182 -11 220 -15 l70 -9 -85 5 c-47 2 -164 6 -260 8 -96 2 -146 2 -110 0 143
-7 329 -28 324 -36 -3 -5 6 -7 20 -4 14 3 28 0 31 -5 4 -5 14 -5 25 1 16 9 18
8 14 -5 -5 -13 -31 -14 -188 -10 -99 4 -251 2 -336 -2 -149 -9 -144 -9 130 -9
425 -1 689 -32 932 -111 122 -39 158 -80 158 -183 0 -27 4 -50 9 -50 6 0 7
-17 5 -37 -29 -216 -64 -403 -75 -403 -5 0 -7 10 -4 23 29 125 35 155 34 172
0 11 -11 -27 -24 -85 -21 -93 -23 -136 -8 -163 9 -15 51 38 56 70 3 18 8 36
11 41 3 5 8 27 12 48 3 22 10 44 15 50 5 6 6 13 3 17 -6 6 13 109 26 142 5 11
16 63 25 115 11 67 23 102 37 118 18 19 19 22 5 22 -11 0 -17 8 -17 23 0 13
-4 27 -9 33 -5 5 -11 29 -13 54 l-4 44 -247 41 c-137 22 -246 43 -243 46 3 3
-10 3 -28 1 -19 -2 -36 0 -40 6 -3 5 5 8 19 6 22 -2 23 0 14 18 -8 14 -7 25 4
42 10 15 12 27 5 39 -5 10 -6 22 -3 28 4 5 1 16 -5 24 -7 8 -10 19 -8 25 2 7
11 -5 21 -25 10 -20 13 -34 7 -30 -14 9 -12 -2 6 -30 9 -13 13 -28 10 -33 -3
-5 1 -9 9 -9 10 0 11 5 4 18 -5 10 -11 34 -14 54 -4 32 -2 35 11 24 13 -10 13
-8 4 17 -6 16 -16 32 -22 35 -7 4 -12 16 -14 26 -1 10 -5 27 -9 38 -3 11 10
-9 30 -45 21 -39 34 -74 32 -87 -2 -13 -1 -23 4 -23 4 0 10 10 12 23 4 20 4
20 6 -3 0 -15 6 -31 11 -36 7 -7 7 -19 1 -35 -10 -27 -4 -79 9 -79 15 0 17 65
4 139 -14 81 -13 100 4 52 11 -32 26 -40 36 -18 4 9 1 -59 -3 -81 -1 -2 -5 0
-11 3 -5 3 -10 -1 -10 -9 0 -9 7 -13 20 -11 23 4 26 -14 9 -47 -8 -15 -8 -23
1 -32 8 -8 10 -7 5 7 -6 13 -2 17 15 17 20 0 21 -2 9 -17 -13 -16 -12 -17 3
-4 10 7 16 16 14 20 -7 12 14 52 24 46 6 -3 10 4 10 16 0 12 3 19 7 15 8 -7
52 90 53 116 0 9 10 24 22 32 12 9 18 16 12 16 -6 0 -20 -9 -32 -20 -12 -11
-26 -20 -32 -20 -5 0 -10 -5 -10 -11 0 -5 5 -7 10 -4 18 11 11 -8 -12 -34 -13
-14 -15 -19 -5 -12 9 7 17 10 17 7 0 -14 -29 -63 -44 -75 -21 -17 -20 -7 1 26
14 21 14 25 3 21 -10 -3 -20 11 -32 46 -19 53 -43 85 -55 72 -4 -4 -3 -10 3
-14 15 -10 12 -46 -4 -62 -12 -11 -13 -9 -7 9 14 46 -82 201 -125 201 -9 0
-23 11 -30 25 -7 14 -17 25 -22 25 -4 0 1 -15 12 -32 25 -41 26 -56 2 -35 -26
24 -50 23 -30 0 8 -10 19 -24 23 -32 10 -18 -9 -7 -46 26 -14 13 -34 30 -45
38 -26 20 -9 19 22 -1 21 -15 24 -15 18 -1 -5 13 -71 47 -91 47 -4 0 22 -30
59 -67z m194 -64 c13 -18 24 -40 24 -48 -1 -9 -10 1 -20 21 -24 45 -44 61 -30
24 5 -15 16 -39 25 -56 8 -16 15 -33 15 -37 -1 -4 -15 19 -32 52 -18 33 -31
64 -30 68 1 4 -5 10 -13 13 -8 3 -12 10 -9 15 7 13 40 -12 70 -52z m-69 15
c-3 -3 -12 -4 -19 -1 -8 3 -5 6 6 6 11 1 17 -2 13 -5z m-307 -64 c0 -5 -7 -10
-15 -10 -8 0 -15 5 -15 10 0 6 7 10 15 10 8 0 15 -4 15 -10z m360 -35 c0 -5
-5 -3 -10 5 -5 8 -10 20 -10 25 0 6 5 3 10 -5 5 -8 10 -19 10 -25z m-162 -11
c-4 -3 -12 5 -18 18 -12 22 -12 22 6 6 10 -10 15 -20 12 -24z m43 14 c11 -21
11 -22 -4 -9 -10 7 -17 17 -17 22 0 15 9 10 21 -13z m-67 -51 c29 -39 16 -40
-29 -1 -36 31 -37 34 -15 31 13 -2 33 -16 44 -30z m53 11 c-3 -8 -6 -5 -6 6
-1 11 2 17 5 13 3 -3 4 -12 1 -19z m-77 -63 c12 -19 12 -19 -7 -2 -11 9 -24
17 -29 17 -5 0 -14 11 -21 25 l-11 25 28 -23 c15 -12 33 -31 40 -42z m350 -3
c0 -7 -4 -10 -10 -7 -5 3 -10 16 -10 28 0 18 2 19 10 7 5 -8 10 -21 10 -28z
m-280 -3 c0 -6 -4 -7 -10 -4 -5 3 -10 11 -10 16 0 6 5 7 10 4 6 -3 10 -11 10
-16z m278 -60 c-1 -31 -13 -49 -14 -21 -1 9 -5 31 -9 47 -7 27 -7 29 8 17 8
-7 15 -27 15 -43z m-268 -19 c12 -8 11 -10 -7 -10 -13 0 -23 5 -23 10 0 13 11
13 30 0z m-56 -8 c3 -5 -16 -9 -42 -9 l-47 -1 40 8 c22 4 41 8 42 9 1 0 4 -3
7 -7z m63 -18 c-3 -3 -12 -4 -19 -1 -8 3 -5 6 6 6 11 1 17 -2 13 -5z m520
-346 c-2 -13 -4 -3 -4 22 0 25 2 35 4 23 2 -13 2 -33 0 -45z"/>
<path d="M2474 4764 c9 -8 16 -20 16 -26 0 -6 3 -9 6 -6 8 9 -14 48 -27 48 -6
0 -3 -7 5 -16z"/>
<path d="M2742 4740 c-7 -11 -9 -20 -4 -20 4 0 13 9 20 20 7 11 9 20 4 20 -4
0 -13 -9 -20 -20z"/>
<path d="M3776 4752 c-3 -5 1 -9 9 -9 8 0 12 4 9 9 -3 4 -7 8 -9 8 -2 0 -6 -4
-9 -8z"/>
<path d="M3722 4715 c0 -16 2 -22 5 -12 2 9 2 23 0 30 -3 6 -5 -1 -5 -18z"/>
<path d="M3741 4700 c0 -33 1 -34 10 -11 6 16 6 28 -1 35 -7 7 -10 -1 -9 -24z"/>
<path d="M2245 4700 c28 -12 37 -12 30 0 -3 6 -16 10 -28 9 -21 0 -21 -1 -2
-9z"/>
<path d="M3885 4699 c-4 -6 -5 -12 -2 -15 2 -3 7 2 10 11 7 17 1 20 -8 4z"/>
<path d="M2750 4643 c-23 -45 -23 -49 -1 -23 l22 25 -6 -30 c-5 -25 -4 -27 5
-12 7 10 9 24 7 31 -3 8 0 19 6 25 8 8 7 11 -4 11 -9 0 -22 -12 -29 -27z"/>
<path d="M3658 4633 c-3 -21 -3 -44 0 -50 6 -18 22 -16 22 3 0 8 -4 13 -9 10
-5 -4 -7 11 -4 34 3 22 3 40 0 40 -2 0 -7 -17 -9 -37z"/>
<path d="M2160 4656 c0 -2 7 -7 16 -10 8 -3 12 -2 9 4 -6 10 -25 14 -25 6z"/>
<path d="M2905 4620 c-10 -11 -22 -20 -27 -20 -13 0 -49 -40 -44 -49 3 -4 -1
-17 -10 -27 -14 -18 -15 -18 -4 4 6 12 7 22 1 22 -9 0 -24 -26 -26 -45 0 -5
-4 -16 -9 -24 -6 -9 -5 -12 2 -7 6 3 13 2 17 -4 3 -5 0 -10 -7 -10 -18 -1 -49
-46 -53 -76 l-2 -25 26 24 c41 39 54 23 25 -30 -13 -26 -22 -49 -19 -51 7 -7
34 29 35 45 0 7 9 17 20 23 11 6 20 15 20 21 0 6 -4 7 -10 4 -10 -6 2 35 18
59 3 6 8 26 9 45 1 20 12 45 26 60 14 14 22 32 20 39 -3 6 -1 12 5 12 5 0 9 7
9 15 0 19 0 19 -22 -5z m-55 -159 c0 -4 -6 -8 -14 -8 -8 0 -12 6 -9 14 5 13
23 9 23 -6z m-60 -34 c0 -2 -10 -12 -21 -23 -22 -19 -22 -19 -8 4 12 19 29 30
29 19z"/>
<path d="M3730 4626 c0 -8 4 -17 9 -20 5 -4 7 3 4 14 -6 23 -13 26 -13 6z"/>
<path d="M2852 4618 c-7 -7 -12 -16 -12 -21 0 -5 7 -1 16 8 9 9 14 18 12 20
-2 3 -10 -1 -16 -7z"/>
<path d="M339 4603 c-13 -16 -12 -17 4 -4 9 7 17 15 17 17 0 8 -8 3 -21 -13z"/>
<path d="M3705 4587 c3 -16 2 -26 -3 -23 -5 3 -6 -9 -3 -27 l5 -32 9 33 c7 22
6 39 -2 55 -11 21 -11 20 -6 -6z"/>
<path d="M3765 4550 c-4 -17 -5 -34 -2 -36 2 -3 7 10 11 27 8 42 0 50 -9 9z"/>
<path d="M3662 4530 c0 -19 2 -27 5 -17 2 9 2 25 0 35 -3 9 -5 1 -5 -18z"/>
<path d="M3767 4484 c-9 -26 -16 -49 -14 -51 7 -6 39 75 35 87 -2 6 -11 -10
-21 -36z"/>
<path d="M1818 4513 c7 -3 16 -2 19 1 4 3 -2 6 -13 5 -11 0 -14 -3 -6 -6z"/>
<path d="M3685 4468 c-4 -18 -16 -50 -26 -72 -12 -26 -16 -44 -9 -55 10 -19
14 -11 25 54 6 33 9 37 15 20 6 -14 9 -5 9 33 1 59 -4 67 -14 20z"/>
<path d="M2600 4463 c0 -13 5 -23 10 -23 13 0 13 11 0 30 -8 12 -10 11 -10 -7z"/>
<path d="M1618 4463 c7 -3 16 -2 19 1 4 3 -2 6 -13 5 -11 0 -14 -3 -6 -6z"/>
<path d="M2893 4438 c-18 -13 -33 -27 -33 -32 0 -5 11 1 24 13 14 13 29 21 34
17 5 -3 9 1 9 9 0 8 -1 15 -1 15 -1 0 -16 -10 -33 -22z"/>
<path d="M1720 4434 l-25 -15 25 7 c28 7 35 12 29 18 -2 2 -15 -2 -29 -10z"/>
<path d="M4237 4419 c-9 -12 -16 -16 -19 -9 -2 7 -11 3 -23 -10 l-20 -22 45 7
c25 4 50 12 55 18 7 7 4 8 -8 4 -15 -6 -17 -3 -12 13 8 26 0 26 -18 -1z"/>
<path d="M1675 4410 c-3 -5 -1 -10 4 -10 6 0 11 5 11 10 0 6 -2 10 -4 10 -3 0
-8 -4 -11 -10z"/>
<path d="M4296 4409 c3 -5 12 -9 21 -9 19 0 9 13 -12 16 -8 1 -13 -2 -9 -7z"/>
<path d="M4370 4410 c-12 -8 -10 -10 8 -10 13 0 20 4 17 10 -7 12 -6 12 -25 0z"/>
<path d="M4410 4399 c0 -3 -33 -9 -72 -12 -117 -10 -342 -45 -570 -87 -116
-22 -257 -43 -312 -46 -115 -6 -239 -13 -245 -13 -2 -1 3 -8 10 -18 19 -22 18
-81 -1 -89 -8 -4 -44 -12 -80 -19 -61 -12 -56 -12 80 -8 155 5 228 -4 221 -28
-3 -8 -6 -36 -8 -64 -3 -37 -1 -46 6 -35 13 18 14 9 12 -52 0 -20 3 -39 8 -43
6 -3 8 3 6 14 -3 14 1 18 16 14 21 -6 25 -18 9 -28 -15 -9 -12 -25 5 -25 18 0
30 -23 56 -107 25 -80 68 -173 81 -173 5 0 8 -10 7 -22 -4 -28 30 -136 44
-145 6 -4 7 -1 2 8 -8 12 -6 12 9 0 30 -25 41 1 22 50 -14 34 -15 44 -4 50 10
6 19 -10 37 -62 18 -54 26 -68 35 -59 8 9 8 14 -1 17 -7 2 -10 10 -7 17 3 7
-1 26 -7 42 -15 35 -14 32 -24 69 -4 17 -14 35 -22 42 -20 16 -82 261 -89 353
-3 41 -3 72 -1 70 3 -3 20 -78 38 -167 18 -90 37 -163 41 -163 4 0 5 9 3 20
-5 24 35 70 60 70 10 0 16 3 13 6 -3 3 14 24 39 46 40 38 44 45 38 77 -6 41 9
78 21 48 3 -9 3 -25 0 -34 -6 -16 -6 -16 12 0 10 9 25 17 32 17 7 0 10 3 7 7
-4 3 -2 12 4 19 6 8 9 20 6 28 -3 7 0 13 6 13 65 -2 87 5 118 36 29 29 43 34
133 48 70 11 111 13 135 7 18 -5 42 -11 53 -13 43 -9 65 -19 105 -49 23 -17
43 -37 43 -44 0 -6 5 -11 12 -10 13 3 66 -93 72 -132 3 -14 5 -25 6 -25 1 0 3
-9 5 -19 2 -10 8 -22 13 -25 6 -3 12 -17 15 -31 3 -17 5 -11 6 17 1 37 -13 88
-29 103 -3 3 -17 29 -32 58 -19 39 -23 52 -12 48 9 -3 18 -6 20 -6 2 0 4 -8 5
-17 0 -11 3 -13 6 -5 2 6 9 9 14 6 6 -3 5 -12 -3 -22 -8 -9 -8 -13 -2 -9 7 4
15 0 18 -9 3 -8 2 -12 -4 -9 -6 3 -10 -1 -10 -10 0 -9 5 -13 10 -10 6 4 10 3
9 -2 -3 -20 2 -27 12 -13 8 12 10 12 8 -5 -2 -35 1 -46 11 -40 6 3 10 0 10 -8
0 -8 9 -22 20 -32 11 -10 20 -23 20 -29 0 -6 -21 -30 -47 -54 -36 -32 -42 -41
-23 -34 14 5 31 7 38 5 7 -3 19 1 28 7 11 10 18 10 32 -4 22 -19 36 -21 26 -3
-6 10 -4 10 7 0 20 -20 31 -15 19 7 -6 11 -9 20 -7 20 15 0 67 -23 67 -30 0
-4 12 -11 28 -16 48 -14 60 -12 55 6 -2 9 -11 17 -19 17 -10 0 -11 -3 -2 -14
10 -12 7 -12 -18 -2 -34 15 -64 39 -47 39 6 0 13 -5 15 -12 3 -8 11 -6 29 5
24 16 84 13 73 -4 -3 -5 2 -6 10 -3 9 3 16 1 16 -5 0 -20 28 -11 33 11 7 26
-1 38 -13 19 -6 -11 -16 -6 -44 21 -20 19 -36 37 -36 40 0 12 33 18 45 8 9 -8
14 -6 18 4 4 9 1 13 -7 10 -7 -2 -23 5 -36 16 -18 16 -21 23 -12 32 7 7 12 17
12 23 0 5 -4 4 -9 -4 -5 -7 -14 -10 -21 -6 -9 6 -9 10 1 16 12 8 12 11 0 18
-11 7 -7 10 15 14 l29 4 -27 2 c-16 0 -28 5 -28 10 0 5 11 8 24 5 31 -5 43 12
15 21 -17 6 -19 9 -8 16 12 8 12 11 -1 19 -13 8 -8 14 11 12 3 -1 26 5 50 13
24 7 35 14 24 15 -18 1 -19 1 -2 11 9 5 22 7 27 4 5 -3 16 9 25 27 8 18 13 26
11 17 -2 -9 2 -16 10 -16 8 0 13 10 12 24 -2 16 -7 22 -17 18 -11 -4 -12 -3
-1 10 8 10 9 15 1 15 -6 0 -11 5 -11 11 0 5 6 7 13 4 6 -4 1 3 -13 14 -14 12
-18 19 -8 15 13 -4 15 -1 11 15 -3 13 -14 21 -27 21 l-21 1 21 12 c18 10 20
14 8 25 -7 6 -21 12 -31 13 -16 0 -16 1 2 8 51 21 -233 51 -475 51 -180 0
-433 -23 -565 -50 -55 -12 -115 -24 -132 -27 -18 -3 -31 -8 -28 -12 2 -4 -8
-8 -23 -8 -37 -1 -138 -40 -168 -66 -17 -15 -27 -36 -31 -65 -7 -50 -11 -49
-19 5 -5 35 -2 44 26 71 49 50 215 95 523 143 167 26 618 38 778 20 57 -6 128
-14 158 -17 29 -4 92 -17 140 -29 47 -13 89 -21 94 -18 4 2 14 -3 22 -11 9 -8
22 -13 29 -10 26 10 73 -60 85 -127 42 -243 40 -618 -4 -787 -15 -60 -51 -113
-94 -138 -29 -17 -29 -18 -25 -98 5 -101 5 -219 -1 -271 -24 -227 -25 -284 -2
-385 25 -106 30 -113 37 -45 3 33 2 67 -2 75 -15 32 -24 106 -16 135 4 17 10
41 13 55 6 31 37 90 47 90 5 0 8 -1 8 -2 0 -2 -5 -30 -10 -63 -10 -62 1 -157
22 -182 13 -17 18 -206 6 -214 -9 -6 -14 -159 -9 -239 2 -19 -2 -80 -8 -135
-26 -252 -31 -323 -22 -340 3 -5 6 -14 8 -20 1 -5 9 -28 17 -50 14 -39 12 -90
-5 -100 -4 -3 -6 -12 -3 -19 6 -15 -72 -60 -81 -47 -3 5 -19 4 -35 -2 -23 -9
-35 -9 -50 1 -14 9 -20 9 -20 1 0 -8 -4 -8 -15 1 -8 7 -12 16 -9 21 3 5 1 24
-5 42 -6 17 -12 44 -15 60 -3 15 -11 34 -19 42 -13 13 -16 13 -21 -1 -3 -9 -4
-19 -1 -24 3 -4 0 -21 -5 -36 -8 -24 -28 -165 -55 -389 -5 -46 -14 -112 -21
-170 -3 -22 -9 -74 -14 -115 -9 -81 -20 -144 -44 -255 -9 -38 -16 -73 -16 -77
0 -5 124 -8 275 -8 l275 0 0 1954 0 1953 -37 7 c-173 30 -392 57 -536 66 -170
12 -577 11 -577 -1z m-746 -160 c20 3 25 -1 20 -14 -4 -8 -9 -13 -13 -11 -13
9 -74 -95 -81 -137 -4 -25 0 -76 10 -127 17 -88 69 -314 78 -340 10 -31 12
-50 3 -50 -5 0 -11 8 -14 18 -3 9 -17 49 -32 87 -14 39 -48 147 -75 241 -50
172 -57 237 -28 271 6 7 7 13 4 13 -4 0 1 14 11 31 16 27 22 30 56 26 23 -3
37 0 37 7 0 6 4 6 9 -2 4 -8 11 -13 15 -13z m1853 -171 c-3 -7 -5 -2 -5 12 0
14 2 19 5 13 2 -7 2 -19 0 -25z m-613 -3 c-4 -11 1 -15 17 -15 16 0 20 -3 13
-10 -8 -8 -20 -7 -40 0 -28 11 -28 12 -10 26 25 18 27 18 20 -1z m-962 -33
c-7 -2 -12 -8 -12 -14 0 -6 -8 -17 -17 -24 -17 -13 -17 -14 2 -8 17 5 16 4 -4
-11 -19 -15 -25 -15 -32 -4 -7 12 -10 12 -21 0 -11 -11 -11 -13 1 -6 10 5 12
4 7 -4 -4 -6 -12 -8 -18 -5 -6 4 -14 0 -19 -7 -7 -11 -9 -11 -9 -1 0 7 -5 10
-12 6 -7 -4 -8 -3 -4 5 4 6 12 8 18 5 7 -5 9 -2 5 8 -4 11 1 18 15 21 11 3 17
10 14 15 -3 5 5 9 17 8 12 -1 31 6 41 16 10 10 24 14 30 11 7 -4 6 -8 -2 -11z
m1588 -19 c0 -43 -5 -41 -13 5 -4 18 -2 32 3 32 6 0 10 -16 10 -37z m-550 13
c0 -3 -4 -8 -10 -11 -5 -3 -10 -1 -10 4 0 6 5 11 10 11 6 0 10 -2 10 -4z
m-1180 -96 c0 -5 -4 -10 -10 -10 -5 0 -10 5 -10 10 0 6 5 10 10 10 6 0 10 -4
10 -10z m-20 -25 c0 -1 -8 -9 -17 -18 -17 -14 -18 -14 -18 7 0 17 5 22 18 18
9 -2 17 -5 17 -7z m1185 -185 c3 -5 1 -10 -4 -10 -6 0 -11 5 -11 10 0 6 2 10
4 10 3 0 8 -4 11 -10z m-1335 -64 c0 -8 -7 -16 -15 -20 -17 -6 -18 -4 -9 18 8
20 24 21 24 2z m1697 -2352 c-3 -3 -12 -4 -19 -1 -8 3 -5 6 6 6 11 1 17 -2 13
-5z"/>
<path d="M2782 4380 c-7 -11 -8 -20 -3 -20 9 0 24 30 18 36 -1 2 -8 -6 -15
-16z"/>
<path d="M3707 4381 c-4 -17 -3 -21 5 -13 5 5 8 16 6 23 -3 8 -7 3 -11 -10z"/>
<path d="M1388 4373 c7 -3 16 -2 19 1 4 3 -2 6 -13 5 -11 0 -14 -3 -6 -6z"/>
<path d="M2600 4364 c0 -8 5 -12 10 -9 6 4 8 11 5 16 -9 14 -15 11 -15 -7z"/>
<path d="M1448 4303 c12 -2 32 -2 45 0 12 2 2 4 -23 4 -25 0 -35 -2 -22 -4z"/>
<path d="M1343 4293 c15 -2 37 -2 50 0 12 2 0 4 -28 4 -27 0 -38 -2 -22 -4z"/>
<path d="M1125 4265 c-60 -12 -127 -30 -148 -40 -39 -16 -87 -59 -87 -77 0 -5
12 4 26 22 15 17 42 37 61 45 32 13 230 57 308 68 24 3 23 4 -10 5 -22 0 -89
-10 -150 -23z"/>
<path d="M1663 4284 c-34 -5 -43 -18 -20 -27 7 -4 8 -6 1 -6 -6 -1 -17 6 -24
14 -7 8 -24 15 -39 14 l-26 -1 25 -8 c25 -8 25 -8 2 -9 -13 -1 -33 4 -44 10
-18 10 -20 9 -15 -5 4 -9 2 -16 -3 -16 -6 0 -10 5 -10 10 0 12 -68 12 -135 -1
-54 -10 -88 -14 -150 -17 -37 -2 -39 -4 -21 -17 20 -15 20 -15 0 -15 -11 0
-26 6 -33 13 -11 10 -13 10 -7 0 5 -10 -5 -13 -38 -13 -50 0 -57 -14 -21 -38
19 -12 18 -13 -7 -8 -15 4 -30 1 -34 -6 -4 -7 -3 -8 4 -4 7 4 12 3 12 -1 0
-11 70 -43 94 -43 16 0 15 3 -5 20 l-24 21 32 -16 c36 -17 43 -18 43 -7 0 4
-21 14 -47 22 -35 11 -42 16 -26 18 12 2 36 -4 53 -13 18 -9 39 -14 47 -11 14
6 14 9 -2 26 -10 11 -13 20 -7 20 6 0 14 -5 17 -10 4 -6 14 -9 23 -8 11 2 16
-3 14 -14 -2 -10 2 -18 8 -18 6 0 9 -4 6 -9 -6 -10 24 -25 32 -16 3 3 0 5 -6
5 -7 0 -12 5 -12 10 0 7 6 7 19 0 30 -16 36 -12 16 10 -18 20 -18 21 1 14 15
-5 14 -2 -6 16 -23 20 -23 21 -3 15 20 -5 132 -25 143 -25 3 0 -2 5 -10 10
-11 7 -5 8 18 4 25 -5 32 -3 30 7 -2 10 6 13 32 11 27 -2 31 0 20 8 -17 12 60
7 123 -9 22 -5 39 -5 43 0 3 5 11 9 17 9 7 0 6 -4 -3 -10 -11 -7 -5 -10 24
-10 26 0 37 4 33 13 -3 8 9 13 42 14 69 2 125 14 111 23 -8 5 1 12 24 20 21 7
40 9 43 6 4 -3 12 -1 19 5 9 7 19 7 33 -1 27 -14 132 -2 107 12 -18 10 -477
20 -533 12z m71 -10 c9 -3 16 -11 16 -16 0 -7 -5 -6 -14 1 -7 6 -28 9 -47 6
-26 -4 -30 -3 -14 4 24 12 39 13 59 5z m-290 -33 c4 -5 -12 -7 -36 -4 -57 8
-61 13 -10 13 22 0 43 -4 46 -9z m290 0 c3 -5 -6 -12 -22 -16 l-27 -8 25 -7
c22 -7 22 -8 4 -9 -28 -1 -36 9 -21 27 10 13 9 15 -5 9 -10 -3 -20 -2 -23 3
-4 6 9 10 29 10 19 0 37 -4 40 -9z m-247 -37 c-3 -3 -12 -4 -19 -1 -8 3 -5 6
6 6 11 1 17 -2 13 -5z m-320 -10 c-3 -3 -12 -4 -19 -1 -8 3 -5 6 6 6 11 1 17
-2 13 -5z m38 -4 c3 -6 -1 -7 -9 -4 -18 7 -21 14 -7 14 6 0 13 -4 16 -10z
m-68 -46 c-3 -3 -12 -4 -19 -1 -8 3 -5 6 6 6 11 1 17 -2 13 -5z"/>
<path d="M2240 4260 c8 -5 20 -10 25 -10 6 0 3 5 -5 10 -8 5 -19 10 -25 10 -5
0 -3 -5 5 -10z"/>
<path d="M2338 4253 c7 -3 16 -2 19 1 4 3 -2 6 -13 5 -11 0 -14 -3 -6 -6z"/>
<path d="M2019 4224 c-19 -15 -27 -24 -18 -21 9 3 22 1 30 -3 10 -7 8 -11 -11
-18 -15 -6 -27 -6 -31 -1 -3 5 -14 0 -24 -11 -10 -11 -22 -20 -27 -20 -5 0
-30 -9 -55 -21 -32 -14 -59 -19 -93 -17 -27 3 -46 0 -43 -5 3 -4 12 -6 20 -3
8 4 13 1 11 -6 -5 -15 -48 -21 -48 -6 0 6 -6 4 -13 -7 -8 -10 -19 -15 -25 -11
-7 4 -12 1 -12 -6 0 -8 -17 -20 -37 -27 -21 -7 -49 -20 -63 -29 -30 -20 -89
-42 -111 -42 -9 0 -24 -9 -34 -20 -10 -11 -24 -20 -30 -20 -7 0 -18 -7 -25
-15 -7 -8 -20 -15 -30 -15 -10 0 -20 -7 -24 -15 -3 -8 -10 -15 -16 -15 -6 0
-31 -14 -56 -30 -24 -17 -44 -28 -44 -24 0 4 -9 -5 -21 -20 -11 -14 -27 -26
-35 -26 -8 0 -14 -5 -14 -11 0 -14 -47 -59 -61 -59 -5 0 -9 -4 -9 -10 0 -5
-10 -20 -22 -32 -14 -14 -18 -23 -10 -26 7 -2 12 -10 12 -18 0 -18 14 -18 29
0 7 8 20 12 31 9 17 -5 16 -8 -11 -34 -16 -15 -29 -30 -29 -32 0 -7 79 -2 86
6 5 4 1 5 -9 1 -29 -11 -19 4 14 20 28 14 30 14 18 0 -11 -14 -9 -15 18 -11
25 4 30 2 26 -10 -4 -9 -15 -13 -30 -10 -13 2 -26 -1 -30 -7 -3 -6 -3 -8 1 -4
5 4 19 3 32 -2 16 -6 24 -6 24 1 0 6 6 7 13 3 6 -4 9 -3 4 1 -12 14 45 33 81
27 23 -3 32 -9 28 -18 -7 -17 16 -18 32 -2 7 7 12 8 12 2 0 -6 -4 -14 -9 -19
-6 -6 6 -10 32 -11 30 -1 36 1 22 6 -19 8 -19 9 2 9 12 1 25 -4 29 -10 3 -6
18 -8 33 -5 17 5 22 4 12 -3 -11 -7 -10 -11 7 -20 25 -14 43 -14 22 -1 -17 11
-1 13 25 4 14 -6 13 -10 -12 -30 l-28 -24 33 16 c23 11 45 14 75 9 58 -10 37
7 -38 29 -33 10 -72 27 -87 37 -14 11 -31 19 -37 19 -6 0 -11 4 -11 8 0 5 -18
16 -40 25 -22 8 -40 20 -40 26 0 6 8 7 18 4 14 -6 15 -4 5 8 -19 23 -5 61 66
172 13 21 29 36 36 33 8 -3 10 3 8 17 -3 16 3 25 23 35 16 6 33 12 40 12 6 0
18 7 25 16 12 15 14 15 19 -1 5 -14 10 -13 34 10 22 20 31 24 37 14 6 -10 12
-9 28 5 11 10 20 21 19 25 -2 20 4 22 16 6 13 -18 15 -18 30 -2 21 20 32 22
39 5 3 -8 6 -5 6 6 1 16 7 18 37 13 19 -3 46 -2 59 3 19 7 23 6 19 -5 -4 -10
0 -12 18 -8 13 4 27 11 31 17 6 8 10 8 13 0 3 -6 15 -9 27 -7 13 3 32 -4 46
-16 13 -12 29 -21 35 -21 6 0 29 -15 51 -32 22 -18 35 -26 30 -19 -5 8 6 4 24
-8 18 -13 35 -30 38 -37 8 -22 20 -16 25 11 4 18 1 25 -10 25 -24 0 -2 17 31
26 24 5 29 3 34 -15 3 -13 11 -20 19 -17 12 5 31 -29 26 -48 -2 -5 4 -6 13 -2
9 3 24 6 33 6 16 1 16 1 1 10 -18 10 -63 80 -52 80 4 0 19 -15 34 -32 16 -18
28 -28 29 -21 0 8 9 7 29 -5 16 -9 27 -20 25 -24 -2 -3 5 -10 17 -13 13 -4 25
-2 29 5 5 9 9 9 14 1 11 -18 26 -13 19 7 -6 14 -4 15 9 4 13 -10 17 -10 22 3
3 9 2 14 -2 11 -4 -2 -18 2 -32 10 -19 10 -21 13 -7 14 10 0 17 8 17 19 0 15
-5 18 -22 14 -23 -4 -23 -4 1 10 l23 14 -30 6 c-16 3 -32 14 -36 23 -5 14 -4
15 8 5 11 -9 15 -8 18 7 4 15 0 18 -26 14 -24 -3 -28 -1 -16 7 13 9 13 11 -1
11 -9 0 -29 12 -44 26 -17 15 -34 23 -43 19 -9 -3 -13 -3 -10 1 10 9 -11 46
-22 39 -12 -7 -40 23 -35 38 3 7 -10 19 -28 27 -22 10 -31 21 -30 35 1 17 0
18 -10 5 -14 -17 -42 -26 -32 -10 3 5 2 10 -4 10 -5 0 -13 -5 -16 -10 -4 -7
-13 -6 -26 1 -12 6 -25 7 -32 2 -17 -13 -81 -17 -73 -5 3 6 16 8 29 6 20 -4
20 -4 2 4 -11 5 -33 5 -50 1 -16 -5 -37 -9 -45 -9 -12 1 -12 2 1 10 9 5 26 11
38 13 31 5 38 17 10 17 -14 0 -41 -12 -60 -26z m201 -214 c0 -5 -5 -10 -11
-10 -5 0 -7 5 -4 10 3 6 8 10 11 10 2 0 4 -4 4 -10z m70 -40 c0 -5 -5 -10 -11
-10 -5 0 -7 5 -4 10 3 6 8 10 11 10 2 0 4 -4 4 -10z m-990 -174 c0 -3 -4 -8
-10 -11 -5 -3 -10 -1 -10 4 0 6 5 11 10 11 6 0 10 -2 10 -4z m-127 -123 c-7
-2 -19 -2 -25 0 -7 3 -2 5 12 5 14 0 19 -2 13 -5z m192 -42 c3 -5 2 -12 -3
-15 -5 -3 -9 1 -9 9 0 17 3 19 12 6z m3 -48 c7 -7 10 -13 5 -13 -5 0 -14 5
-19 10 -6 6 -24 12 -41 13 -17 1 -29 5 -27 9 7 11 67 -3 82 -19z m127 -43 c3
-6 -1 -7 -9 -4 -18 7 -21 14 -7 14 6 0 13 -4 16 -10z"/>
<path d="M2353 4233 c-13 -8 -23 -21 -23 -27 0 -6 5 -4 10 4 9 13 11 13 20 0
9 -12 10 -12 8 5 -2 14 2 19 15 17 9 -2 25 2 35 7 14 9 12 10 -13 10 -16 0
-40 -7 -52 -16z"/>
<path d="M2305 4211 c-3 -5 -1 -12 5 -16 5 -3 10 1 10 9 0 18 -6 21 -15 7z"/>
<path d="M5385 4130 c4 -47 9 -98 10 -115 4 -41 14 -201 20 -310 3 -49 8 -109
11 -133 4 -23 8 -75 9 -115 4 -103 4 -102 14 -92 19 19 35 204 34 385 -2 299
-23 411 -82 449 l-24 15 8 -84z"/>
<path d="M1540 4178 c0 -9 100 -14 113 -6 13 8 -1 11 -70 12 -24 1 -43 -2 -43
-6z"/>
<path d="M2440 4180 c0 -5 5 -10 10 -10 6 0 10 5 10 10 0 6 -4 10 -10 10 -5 0
-10 -4 -10 -10z"/>
<path d="M2360 4155 c-7 -9 -8 -15 -2 -15 5 0 12 7 16 15 3 8 4 15 2 15 -2 0
-9 -7 -16 -15z"/>
<path d="M1550 4150 c-11 -8 -7 -9 15 -4 37 8 45 14 19 14 -10 0 -26 -5 -34
-10z"/>
<path d="M2405 4150 c3 -5 8 -10 11 -10 2 0 4 5 4 10 0 6 -5 10 -11 10 -5 0
-7 -4 -4 -10z"/>
<path d="M2720 4115 c7 -9 15 -13 17 -11 7 7 -7 26 -19 26 -6 0 -6 -6 2 -15z"/>
<path d="M1200 4106 c0 -2 9 -6 20 -9 11 -3 18 -1 14 4 -5 9 -34 13 -34 5z"/>
<path d="M872 4050 c0 -19 2 -27 5 -17 2 9 2 25 0 35 -3 9 -5 1 -5 -18z"/>
<path d="M995 4040 c11 -5 29 -8 40 -8 16 0 15 2 -5 8 -34 11 -60 11 -35 0z"/>
<path d="M2545 3980 c-3 -5 -2 -10 4 -10 5 0 13 5 16 10 3 6 2 10 -4 10 -5 0
-13 -4 -16 -10z"/>
<path d="M3420 3945 c0 -8 2 -15 4 -15 2 0 6 7 10 15 3 8 1 15 -4 15 -6 0 -10
-7 -10 -15z"/>
<path d="M4984 3949 c-2 -4 3 -9 11 -13 16 -6 45 2 45 13 0 9 -50 9 -56 0z"/>
<path d="M2902 3900 c0 -19 2 -27 5 -17 2 9 2 25 0 35 -3 9 -5 1 -5 -18z"/>
<path d="M4155 3911 c-11 -5 -26 -6 -34 -3 -10 4 -12 1 -6 -8 5 -9 4 -11 -3
-6 -13 8 -56 -17 -89 -52 -55 -56 -80 -176 -53 -248 9 -23 8 -25 -3 -15 -12 9
-16 7 -20 -9 -5 -18 0 -20 41 -19 26 0 56 0 67 0 57 -3 85 1 80 9 -3 6 -2 10
4 10 5 0 14 -7 19 -15 7 -14 20 -14 103 -5 124 15 126 16 148 59 22 42 22 131
1 173 -23 43 -63 78 -82 72 -12 -3 -17 -1 -16 6 2 7 -16 23 -40 35 -23 13 -40
19 -37 14 4 -5 -3 -9 -14 -9 -22 0 -29 -16 -10 -22 6 -2 13 -15 14 -29 3 -24
1 -25 -29 -15 -20 6 -32 16 -32 27 0 14 4 15 20 7 16 -9 18 -8 13 7 -4 9 -7
23 -7 31 0 16 -6 16 -35 5z m-5 -65 c0 -14 -20 -33 -63 -60 -27 -17 -28 -17
-19 0 5 9 7 25 5 35 -4 13 2 21 16 27 35 13 61 12 61 -2z m120 -16 c0 -5 -4
-10 -10 -10 -5 0 -10 5 -10 10 0 6 5 10 10 10 6 0 10 -4 10 -10z m-110 -14 c0
-2 -8 -10 -17 -17 -16 -13 -17 -12 -4 4 13 16 21 21 21 13z m-100 -16 c0 -5
-2 -10 -4 -10 -3 0 -8 5 -11 10 -3 6 -1 10 4 10 6 0 11 -4 11 -10z m42 -36
c-5 -9 -7 -26 -4 -37 3 -14 1 -18 -6 -13 -13 8 -16 48 -5 59 13 14 24 7 15 -9z
m69 -19 c-1 -15 -24 -12 -29 3 -3 9 2 13 12 10 10 -1 17 -7 17 -13z m-71 -154
c0 -6 -4 -13 -10 -16 -5 -3 -10 1 -10 9 0 9 5 16 10 16 6 0 10 -4 10 -9z"/>
<path d="M5048 3903 c7 -3 16 -2 19 1 4 3 -2 6 -13 5 -11 0 -14 -3 -6 -6z"/>
<path d="M861 3828 c0 -37 2 -69 7 -71 4 -3 6 18 4 46 -5 86 -9 96 -11 25z"/>
<path d="M1700 3879 c0 -4 -9 -11 -21 -14 -12 -4 -18 -12 -15 -21 3 -9 -4 -16
-19 -20 -29 -7 -84 -67 -86 -92 -6 -93 -3 -132 11 -133 10 0 11 -2 3 -6 -15
-5 -6 -54 11 -65 17 -12 111 -38 135 -38 12 0 21 -4 21 -10 0 -5 5 -10 11 -10
5 0 8 4 5 8 -3 5 9 6 26 4 21 -3 29 -1 24 7 -4 6 -2 11 3 11 6 0 11 -5 11 -11
0 -7 30 -9 85 -8 53 2 84 7 83 13 -1 6 3 21 10 34 7 12 15 51 19 85 9 98 -34
175 -136 242 -31 21 -54 27 -110 29 -39 2 -71 0 -71 -5z m24 -80 c7 11 36 4
36 -9 0 -5 -25 -8 -56 -7 -37 1 -49 4 -35 9 14 5 19 13 14 25 -5 14 -1 12 15
-5 11 -13 23 -19 26 -13z m126 6 c0 -17 -2 -18 -25 -9 -13 5 -14 8 -3 15 19
13 28 11 28 -6z m60 -14 c6 -11 6 -22 1 -25 -11 -7 -33 19 -24 28 4 4 -1 4
-11 0 -14 -5 -17 -4 -12 4 11 18 34 14 46 -7z m-80 -81 c0 -5 -7 -10 -15 -10
-8 0 -15 5 -15 10 0 6 7 10 15 10 8 0 15 -4 15 -10z m-240 -84 c0 -3 -4 -8
-10 -11 -5 -3 -10 -1 -10 4 0 6 5 11 10 11 6 0 10 -2 10 -4z m355 -26 c-3 -5
-13 -10 -21 -10 -8 0 -12 5 -9 10 3 6 13 10 21 10 8 0 12 -4 9 -10z m-265 -18
c0 -4 -9 -13 -20 -20 -22 -13 -27 -3 -8 16 14 14 28 16 28 4z m210 -6 c0 -3
-4 -8 -10 -11 -5 -3 -10 -1 -10 4 0 6 5 11 10 11 6 0 10 -2 10 -4z"/>
<path d="M3000 3848 c0 -13 5 -30 10 -38 7 -11 10 -7 10 17 0 17 -4 35 -10 38
-6 3 -10 -4 -10 -17z"/>
<path d="M2892 3835 c0 -16 2 -22 5 -12 2 9 2 23 0 30 -3 6 -5 -1 -5 -18z"/>
<path d="M806 3775 c4 -27 13 -58 22 -67 16 -19 42 -24 42 -9 0 5 3 18 6 28 5
15 4 16 -5 3 -10 -13 -13 -13 -25 2 -7 10 -16 15 -19 11 -4 -3 -7 5 -8 18 0
13 -5 33 -10 44 -6 13 -7 4 -3 -30z"/>
<path d="M2340 3785 c19 -19 40 -35 48 -35 8 0 -3 16 -24 35 -21 19 -42 35
-48 35 -5 0 5 -16 24 -35z"/>
<path d="M2881 3774 c0 -11 3 -14 6 -6 3 7 2 16 -1 19 -3 4 -6 -2 -5 -13z"/>
<path d="M3007 3694 c-19 -90 -17 -125 3 -57 12 42 25 143 19 143 -3 0 -12
-39 -22 -86z"/>
<path d="M3487 3750 c-3 -11 -1 -23 4 -26 5 -3 9 6 9 20 0 31 -6 34 -13 6z"/>
<path d="M2325 3730 c18 -18 37 -29 52 -28 12 1 23 4 23 5 0 2 -23 14 -52 28
l-52 25 29 -30z"/>
<path d="M2850 3749 c0 -8 -12 -25 -26 -39 -41 -38 -52 -61 -58 -114 -5 -39
-2 -51 12 -62 25 -19 29 -17 41 19 17 55 43 198 37 204 -3 4 -6 0 -6 -8z"/>
<path d="M5020 3718 c0 -11 12 -10 30 2 12 7 10 9 -8 7 -12 0 -22 -5 -22 -9z"/>
<path d="M3521 3660 c0 -8 6 -24 14 -34 11 -15 15 -16 15 -5 0 8 -7 24 -15 35
-11 14 -14 15 -14 4z"/>
<path d="M3712 3640 c7 -11 20 -20 28 -19 10 0 11 2 3 6 -7 2 -13 11 -13 19 0
8 -7 14 -15 14 -13 0 -13 -3 -3 -20z"/>
<path d="M4598 3624 c-16 -8 -27 -22 -27 -32 1 -16 2 -16 6 1 2 9 12 18 21 19
32 2 37 4 57 16 19 11 19 11 -5 11 -14 0 -37 -7 -52 -15z"/>
<path d="M3826 3571 c-8 -13 13 -25 46 -27 24 -1 25 0 12 13 -12 13 -17 13
-31 1 -10 -7 -14 -8 -10 -1 4 6 3 14 -2 17 -5 4 -12 2 -15 -3z"/>
<path d="M2209 3529 c-9 -17 -8 -23 2 -30 20 -12 29 -11 29 4 0 6 6 3 12 -8
15 -28 15 -28 27 -21 6 4 2 16 -11 31 -18 20 -24 22 -36 12 -13 -10 -15 -9
-10 11 8 28 2 28 -13 1z"/>
<path d="M2270 3540 c0 -8 5 -22 10 -30 9 -13 10 -13 10 0 0 8 -5 22 -10 30
-9 13 -10 13 -10 0z"/>
<path d="M4519 3523 c-13 -15 -12 -15 9 -4 23 12 28 21 13 21 -5 0 -15 -7 -22
-17z"/>
<path d="M1457 3506 c-4 -10 1 -12 14 -9 23 6 24 9 5 16 -8 3 -17 0 -19 -7z"/>
<path d="M2318 3513 c6 -2 18 -2 25 0 6 3 1 5 -13 5 -14 0 -19 -2 -12 -5z"/>
<path d="M3900 3510 c0 -5 5 -10 11 -10 5 0 7 5 4 10 -3 6 -8 10 -11 10 -2 0
-4 -4 -4 -10z"/>
<path d="M2073 3498 c-4 -7 -8 -22 -8 -33 0 -16 -6 -19 -30 -17 l-30 2 30 -14
c21 -10 25 -15 12 -15 -10 -1 -15 -6 -12 -11 5 -8 11 -7 21 1 7 6 11 15 8 20
-5 9 1 11 36 13 14 1 16 7 12 36 -1 6 -10 10 -19 10 -15 0 -16 2 -3 10 9 6 10
10 3 10 -6 0 -15 -6 -20 -12z"/>
<path d="M2110 3500 c0 -5 8 -10 18 -10 14 0 15 -2 2 -10 -17 -11 -6 -13 27
-4 12 3 24 12 27 20 4 11 -4 14 -34 14 -22 0 -40 -4 -40 -10z"/>
<path d="M2300 3489 c0 -5 5 -7 10 -4 6 3 10 8 10 11 0 2 -4 4 -10 4 -5 0 -10
-5 -10 -11z"/>
<path d="M4270 3490 c-9 -6 -10 -10 -3 -10 6 0 15 5 18 10 8 12 4 12 -15 0z"/>
<path d="M4306 3485 c4 -8 8 -15 10 -15 2 0 4 7 4 15 0 8 -4 15 -10 15 -5 0
-7 -7 -4 -15z"/>
<path d="M1672 3457 c-23 -24 -28 -37 -14 -37 5 0 14 11 21 24 13 23 15 23 50
10 l36 -15 -24 21 c-30 26 -43 25 -69 -3z"/>
<path d="M2036 3471 c-3 -5 1 -11 9 -14 9 -4 12 -1 8 9 -6 16 -10 17 -17 5z"/>
<path d="M1564 3456 c-29 -22 -13 -26 21 -5 17 11 23 19 14 19 -8 0 -24 -6
-35 -14z"/>
<path d="M1791 3454 c-11 -8 -21 -23 -20 -32 0 -14 2 -13 9 3 l9 20 0 -20 c1
-15 3 -17 10 -6 5 7 15 10 22 7 8 -4 6 -1 -4 7 -18 15 -18 16 5 19 18 2 20 5
7 10 -9 3 -26 0 -38 -8z"/>
<path d="M1921 3448 c-16 -25 -13 -36 3 -15 8 10 18 17 22 16 19 -3 34 1 34
10 0 16 -48 7 -59 -11z"/>
<path d="M1886 3444 c-3 -9 -13 -14 -21 -11 -9 4 -12 1 -9 -7 7 -19 33 -15 40
6 7 24 -1 35 -10 12z"/>
<path d="M2280 3440 c0 -4 -12 -11 -26 -14 -15 -4 -24 -9 -21 -12 6 -6 87 19
87 26 0 3 -9 6 -20 7 -11 1 -20 -2 -20 -7z"/>
<path d="M2095 3420 c3 -5 8 -10 11 -10 2 0 4 5 4 10 0 6 -5 10 -11 10 -5 0
-7 -4 -4 -10z"/>
<path d="M2820 3421 c0 -6 4 -13 10 -16 6 -3 7 1 4 9 -7 18 -14 21 -14 7z"/>
<path d="M3708 3393 c7 -3 16 -2 19 1 4 3 -2 6 -13 5 -11 0 -14 -3 -6 -6z"/>
<path d="M1885 3380 c-3 -5 -1 -10 4 -10 6 0 11 5 11 10 0 6 -2 10 -4 10 -3 0
-8 -4 -11 -10z"/>
<path d="M1185 3100 c11 -5 29 -8 40 -8 16 0 15 2 -5 8 -34 11 -60 11 -35 0z"/>
<path d="M4048 3103 c7 -3 16 -2 19 1 4 3 -2 6 -13 5 -11 0 -14 -3 -6 -6z"/>
<path d="M4098 3093 c7 -3 16 -2 19 1 4 3 -2 6 -13 5 -11 0 -14 -3 -6 -6z"/>
<path d="M1258 3083 c7 -3 16 -2 19 1 4 3 -2 6 -13 5 -11 0 -14 -3 -6 -6z"/>
<path d="M1498 3043 c7 -3 16 -2 19 1 4 3 -2 6 -13 5 -11 0 -14 -3 -6 -6z"/>
<path d="M1723 3023 c9 -2 25 -2 35 0 9 3 1 5 -18 5 -19 0 -27 -2 -17 -5z"/>
<path d="M7 2833 c-10 -10 -8 -51 2 -58 5 -3 13 0 17 6 5 8 3 9 -6 4 -10 -6
-12 0 -8 24 5 33 5 34 -5 24z"/>
<path d="M31 2824 c0 -11 3 -14 6 -6 3 7 2 16 -1 19 -3 4 -6 -2 -5 -13z"/>
<path d="M7 2753 c8 -6 9 -14 3 -23 -15 -24 -13 -193 2 -188 7 3 17 20 22 39
5 19 14 37 19 40 5 4 4 10 -2 14 -7 4 -9 16 -5 27 3 12 1 24 -5 28 -7 4 -13
20 -15 35 -2 16 -9 31 -17 33 -10 2 -11 1 -2 -5z"/>
<path d="M3906 2404 c-5 -12 -2 -15 10 -10 10 4 14 1 12 -6 -3 -7 -14 -14 -26
-16 -12 -2 -22 -7 -22 -11 0 -5 -13 -14 -30 -21 -16 -7 -51 -32 -77 -55 -26
-24 -52 -41 -58 -38 -5 4 -7 3 -3 -1 8 -9 0 -20 -55 -77 -23 -24 -44 -38 -53
-35 -8 3 -14 -1 -14 -10 0 -9 5 -12 12 -8 6 4 8 3 4 -4 -3 -6 -15 -9 -26 -7
-13 2 -20 -2 -20 -11 0 -12 -4 -13 -21 -3 -12 6 -24 7 -28 2 -3 -4 -19 -10
-36 -12 -48 -5 -62 -17 -30 -25 22 -6 25 -9 15 -21 -9 -11 -9 -15 -1 -15 15 0
14 -30 -1 -31 -7 0 -2 -5 11 -10 16 -6 28 -6 37 2 9 7 14 8 14 1 0 -6 -5 -12
-11 -14 -9 -3 -9 -9 -1 -25 10 -18 8 -22 -9 -26 -11 -3 -32 -3 -46 -1 -17 3
-24 1 -21 -8 3 -7 20 -13 40 -13 19 0 43 -7 53 -15 11 -9 16 -10 11 -2 -4 6
-3 12 1 12 5 0 10 11 11 26 1 14 -2 23 -8 19 -6 -3 -10 1 -10 9 0 19 19 21 26
3 5 -15 50 -21 59 -7 3 5 13 7 23 4 11 -4 13 -3 5 3 -11 8 -13 63 -2 63 8 0
23 -32 21 -43 -1 -4 7 -2 18 5 23 15 25 28 8 48 -11 12 -10 12 3 2 19 -14 40
-13 51 3 5 6 8 6 8 -2 0 -7 -7 -16 -16 -21 -11 -6 -13 -11 -5 -16 6 -4 11 -2
11 3 0 15 33 14 48 -1 6 -6 15 -8 19 -4 4 4 2 11 -5 15 -18 11 31 43 52 35 10
-4 19 1 23 12 7 20 10 23 77 103 62 73 89 131 71 151 -10 11 -11 20 -3 34 8
14 8 17 -2 11 -9 -5 -11 -1 -6 16 3 13 3 18 0 12 -3 -7 -10 -13 -15 -13 -6 0
-8 4 -4 9 3 5 1 12 -5 16 -6 4 -8 11 -5 16 8 12 -2 11 -25 -1 -16 -8 -18 -8
-14 5 4 10 0 15 -14 15 -11 0 -23 -7 -26 -16z m-226 -412 c0 -7 -4 -10 -10 -7
-5 3 -10 16 -10 28 0 18 2 19 10 7 5 -8 10 -21 10 -28z m-79 9 c-7 -5 -10 -14
-7 -20 4 -6 11 -9 16 -6 4 3 6 -4 3 -15 -5 -20 -23 -28 -23 -10 0 6 -9 10 -19
10 -32 0 -34 18 -4 33 30 16 56 22 34 8z"/>
<path d="M5222 2355 c0 -16 2 -22 5 -12 2 9 2 23 0 30 -3 6 -5 -1 -5 -18z"/>
<path d="M2941 2353 c-12 -10 -35 -27 -49 -39 -15 -11 -34 -23 -42 -26 -9 -3
-22 -17 -29 -32 -12 -22 -12 -28 1 -43 9 -10 18 -26 19 -36 4 -18 5 -18 24 0
17 17 34 19 88 14 5 -1 5 -6 2 -11 -4 -6 2 -9 12 -7 79 15 103 22 135 37 36
17 37 17 59 -3 l22 -21 -7 27 c-7 29 10 39 20 12 4 -8 10 -15 16 -15 5 0 7 4
4 9 -3 5 1 11 9 15 9 3 15 0 15 -10 0 -15 39 -35 53 -27 4 3 13 0 20 -5 12
-10 44 -8 55 3 4 3 0 18 -8 33 -18 31 -90 69 -158 82 -26 5 -72 20 -102 34
-64 30 -126 33 -159 9z"/>
<path d="M3700 2311 c0 -6 4 -13 10 -16 6 -3 7 1 4 9 -7 18 -14 21 -14 7z"/>
<path d="M2679 2067 c19 -15 52 -29 75 -32 57 -9 142 -2 136 10 -3 6 -8 9 -12
8 -5 -2 -8 2 -8 7 0 6 -7 10 -16 10 -8 0 -12 -4 -9 -10 3 -6 -1 -7 -9 -4 -9 3
-13 11 -9 17 3 6 1 7 -5 3 -27 -16 -95 -12 -157 10 -11 4 -5 -5 14 -19z"/>
<path d="M5195 1949 c-4 -6 -5 -12 -2 -15 2 -3 7 2 10 11 7 17 1 20 -8 4z"/>
<path d="M5230 1914 c0 -9 -6 -14 -13 -11 -8 3 -14 0 -14 -7 0 -6 -3 -24 -7
-39 -5 -20 -3 -27 8 -27 21 0 31 21 16 30 -11 7 -10 12 3 25 16 15 23 45 12
45 -3 0 -5 -7 -5 -16z"/>
<path d="M3387 1899 c8 -29 31 -45 39 -26 7 20 -1 33 -25 40 -14 3 -17 0 -14
-14z"/>
<path d="M3567 1909 c9 -9 6 -17 -12 -30 -13 -11 -28 -19 -34 -19 -11 0 -15
-12 -12 -40 1 -8 -5 -4 -13 10 -11 17 -15 20 -16 9 0 -17 29 -48 32 -33 0 5 2
14 3 19 2 6 3 15 4 20 1 6 5 4 10 -4 11 -18 31 -5 31 20 0 19 10 24 40 19 12
-2 11 3 -4 19 -11 12 -24 21 -30 21 -6 0 -6 -4 1 -11z"/>
<path d="M3605 1910 c3 -5 8 -10 11 -10 2 0 4 5 4 10 0 6 -5 10 -11 10 -5 0
-7 -4 -4 -10z"/>
<path d="M5146 1888 c3 -4 0 -8 -5 -8 -6 0 -11 -12 -11 -26 0 -19 -4 -25 -14
-21 -18 7 -40 -17 -33 -35 4 -8 6 -7 6 5 1 9 5 17 11 17 5 0 9 -11 8 -24 -1
-14 -6 -22 -10 -20 -4 3 -8 1 -8 -4 0 -5 9 -12 21 -15 14 -4 18 -10 13 -19 -6
-10 -5 -11 7 -1 9 7 20 8 28 4 10 -7 8 -10 -8 -16 -15 -4 -29 -1 -40 9 -17 16
-19 15 -35 -9 -15 -22 -15 -25 -1 -25 9 0 13 5 10 10 -3 6 -1 10 4 10 6 0 11
-8 12 -17 0 -11 3 -13 6 -5 2 6 14 12 24 12 14 0 18 -4 12 -12 -14 -23 -12
-37 5 -30 15 5 15 4 3 -11 -7 -9 -10 -24 -7 -33 4 -9 1 -23 -5 -30 -12 -15 -4
-34 14 -34 7 0 6 4 -3 10 -13 8 -13 11 -1 19 8 5 12 18 8 30 -3 12 0 19 7 18
7 -1 11 12 10 35 -1 25 3 35 10 31 6 -3 8 -3 4 2 -4 4 -4 13 2 19 5 7 13 30
18 52 8 35 7 40 -9 41 -9 1 -20 -5 -23 -13 -3 -8 -10 -14 -15 -14 -6 0 -4 15
5 35 12 30 12 34 -1 29 -17 -7 -19 0 -6 25 7 13 6 18 -4 18 -8 0 -12 -4 -9 -9z"/>
<path d="M3320 1855 c-11 -13 -10 -14 4 -9 9 3 16 10 16 15 0 13 -6 11 -20 -6z"/>
<path d="M3343 1846 c-16 -19 -4 -29 13 -11 8 7 14 16 14 19 0 10 -15 6 -27
-8z"/>
<path d="M3394 1844 c3 -17 24 -34 44 -34 8 0 12 9 10 22 -2 16 -10 23 -30 25
-18 1 -25 -3 -24 -13z"/>
<path d="M3370 1801 c0 -17 18 -41 32 -41 4 0 12 9 18 19 8 16 5 21 -20 30
-26 9 -30 8 -30 -8z m37 -7 c-3 -3 -12 -4 -19 -1 -8 3 -5 6 6 6 11 1 17 -2 13
-5z"/>
<path d="M3460 1800 c0 -13 18 -22 24 -11 3 5 -1 11 -9 15 -8 3 -15 1 -15 -4z"/>
<path d="M3441 1774 c0 -11 3 -14 6 -6 3 7 2 16 -1 19 -3 4 -6 -2 -5 -13z"/>
<path d="M3356 1768 c5 -7 2 -9 -9 -5 -8 3 -17 0 -20 -6 -6 -17 3 -38 14 -31
10 6 12 -7 9 -43 -1 -21 4 -25 27 -22 4 0 10 -8 14 -18 6 -13 7 -11 6 10 -1
15 -7 27 -14 27 -7 0 -13 4 -13 9 0 4 12 6 28 3 24 -5 26 -3 14 11 -8 9 -19
15 -25 14 -7 -1 -11 9 -10 25 1 15 -5 29 -13 32 -10 4 -12 2 -8 -6z"/>
<path d="M3390 1730 c19 -13 30 -13 30 0 0 6 -10 10 -22 10 -19 0 -20 -2 -8
-10z"/>
<path d="M5065 1682 c3 -3 0 -11 -6 -18 -13 -16 -3 -52 10 -38 5 5 11 21 14
35 5 19 3 26 -8 26 -8 0 -13 -3 -10 -5z"/>
<path d="M3345 1640 c3 -5 13 -10 21 -10 8 0 12 5 9 10 -3 6 -13 10 -21 10 -8
0 -12 -4 -9 -10z"/>
<path d="M5117 1637 c-3 -8 -1 -20 4 -28 6 -10 9 -7 9 14 0 29 -5 35 -13 14z"/>
<path d="M3385 1610 c-3 -5 -1 -10 4 -10 6 0 11 5 11 10 0 6 -2 10 -4 10 -3 0
-8 -4 -11 -10z"/>
<path d="M4961 1603 c0 -12 -4 -30 -7 -40 -5 -14 -4 -15 5 -7 7 6 11 24 8 40
-3 21 -4 23 -6 7z"/>
<path d="M3316 1598 c3 -4 9 -8 15 -8 5 0 9 4 9 8 0 5 -7 9 -15 9 -8 0 -12 -4
-9 -9z"/>
<path d="M5049 1598 c-1 -7 -1 -16 0 -20 0 -4 -13 -5 -30 -3 -24 3 -32 0 -36
-16 -3 -10 -12 -19 -20 -19 -11 0 -11 -3 -1 -14 11 -13 15 -13 26 2 7 9 11 21
8 28 -2 6 2 11 10 11 8 0 14 -4 14 -9 0 -5 6 -6 13 -2 7 4 9 3 4 -2 -5 -5 -14
-9 -19 -9 -6 0 -13 -6 -16 -14 -3 -9 0 -11 8 -6 9 6 12 4 8 -6 -21 -56 -13
-52 17 9 19 41 35 75 35 78 0 10 -20 3 -21 -8z"/>
<path d="M5043 1428 c-11 -18 -12 -88 -1 -88 9 0 23 32 34 75 5 19 2 25 -9 25
-9 0 -19 -6 -24 -12z"/>
<path d="M91 1375 c-9 -35 -23 -59 -52 -84 l-39 -36 0 -418 0 -417 125 0 125
0 0 33 c0 40 -27 245 -34 255 -3 5 -14 62 -25 128 -11 65 -23 128 -25 139 -12
54 -45 170 -59 208 -4 9 -9 23 -11 30 -2 6 -11 29 -20 49 l-16 37 30 18 c31
18 37 45 21 87 -6 16 -10 10 -20 -29z"/>
<path d="M4990 1409 c0 -5 5 -7 10 -4 6 3 10 8 10 11 0 2 -4 4 -10 4 -5 0 -10
-5 -10 -11z"/>
<path d="M3611 1381 c-8 -5 -30 -8 -49 -6 -36 3 -95 -17 -120 -41 -11 -11 -17
-12 -28 -3 -12 10 -13 8 -8 -7 5 -18 5 -18 -9 -1 -13 15 -33 19 -114 22 -60 2
-103 -1 -111 -7 -7 -6 -15 -8 -19 -5 -3 4 -15 2 -25 -4 -13 -7 -24 -7 -30 -1
-6 6 -23 2 -46 -9 -20 -11 -44 -17 -53 -14 -10 3 -20 2 -22 -2 -3 -4 -20 -8
-39 -8 -18 0 -38 -6 -44 -14 -7 -8 -27 -16 -45 -16 -41 -2 -90 -14 -106 -28
-7 -5 -22 -7 -33 -4 -13 3 -21 -1 -25 -13 -3 -10 -13 -21 -21 -24 -10 -4 -13
-2 -8 7 5 9 4 9 -7 0 -7 -7 -30 -13 -52 -13 -21 0 -36 -3 -33 -8 7 -11 -21
-45 -32 -38 -5 3 -31 -1 -58 -9 -27 -8 -53 -15 -59 -16 -5 0 -18 -5 -27 -10
-12 -6 -18 -6 -18 1 0 5 -7 10 -16 10 -8 0 -13 -4 -10 -8 2 -4 -4 -8 -15 -8
-10 0 -19 4 -19 9 0 5 -7 7 -15 3 -8 -3 -15 -2 -15 2 0 9 -27 13 -85 12 -42
-1 -68 -21 -58 -46 3 -8 0 -14 -6 -14 -6 0 -11 -5 -11 -11 0 -6 7 -9 15 -5 10
3 17 -3 21 -19 3 -13 16 -28 27 -32 29 -9 77 -11 77 -2 0 4 14 3 32 -2 17 -5
34 -7 36 -4 3 3 11 0 19 -6 8 -7 13 -7 13 -2 0 6 18 8 43 6 45 -5 66 -6 137
-4 25 1 57 0 73 -2 15 -3 29 -1 32 3 2 4 25 6 50 5 25 -1 45 2 45 5 0 4 16 6
35 5 20 -1 41 5 47 12 8 10 13 11 18 2 5 -8 13 -8 27 -1 10 6 31 9 46 8 14 -2
24 1 21 5 -12 20 15 7 29 -13 l16 -23 -6 23 c-4 18 -1 22 16 22 12 0 20 4 17
8 -2 4 4 9 15 9 10 1 19 -2 19 -8 0 -5 8 -9 18 -9 13 0 14 2 3 9 -10 6 -5 11
19 16 23 5 37 3 47 -8 13 -13 18 -13 44 2 26 14 31 14 40 1 7 -10 12 -11 15
-4 3 8 17 9 37 5 27 -6 112 -6 112 -1 0 1 19 3 42 4 23 1 45 5 49 9 4 4 13 2
21 -4 7 -6 13 -7 13 -2 0 5 12 10 28 10 15 1 38 4 52 8 26 6 98 16 115 16 149
-4 171 -7 186 -26 14 -17 20 -18 43 -7 15 6 26 7 26 2 0 -5 6 -7 13 -4 8 3 18
-5 24 -18 l11 -23 10 25 c8 20 11 21 11 6 1 -16 3 -16 17 -5 13 10 17 10 25
-2 6 -9 12 -10 17 -4 4 6 18 11 32 13 44 3 64 8 95 22 17 7 36 12 43 11 8 -1
19 2 25 7 7 5 28 13 47 17 19 4 48 18 63 31 16 13 35 24 43 24 8 0 14 9 14 21
0 11 5 17 10 14 6 -3 10 1 10 9 0 8 -4 17 -9 21 -5 3 -8 17 -5 31 3 17 1 23
-6 19 -6 -4 -11 -1 -9 6 5 40 -1 50 -28 46 -16 -3 -27 -10 -25 -16 2 -9 -5
-10 -19 -6 -12 4 -19 3 -16 -2 8 -13 -29 -43 -53 -43 -10 0 -22 -5 -25 -10 -4
-6 -11 -8 -16 -4 -5 3 -7 10 -4 15 4 5 -1 9 -10 9 -10 0 -13 -5 -9 -12 5 -8 2
-9 -12 -4 -10 5 -28 11 -39 14 -11 2 -26 9 -33 15 -7 5 -15 7 -19 4 -3 -3 -19
1 -36 10 -17 8 -57 17 -89 19 -32 2 -69 11 -83 20 -15 10 -32 13 -42 9 -29
-13 -43 -14 -49 -4 -3 5 -23 9 -45 9 -21 0 -39 4 -39 9 0 5 -25 9 -55 8 -30
-1 -56 1 -58 5 -1 4 -8 3 -16 -1z m-231 -60 c0 -4 -11 -6 -25 -3 -14 2 -25 6
-25 8 0 2 11 4 25 4 14 0 25 -4 25 -9z m-1202 -218 c-10 -2 -18 -9 -18 -15 0
-6 -3 -9 -6 -5 -10 10 6 27 24 26 15 -1 15 -2 0 -6z m1722 -24 c0 -6 -4 -7
-10 -4 -5 3 -10 11 -10 16 0 6 5 7 10 4 6 -3 10 -11 10 -16z"/>
<path d="M3647 966 c4 -5 -1 -7 -9 -3 -9 3 -21 0 -27 -6 -9 -9 -14 -8 -21 3
-7 10 -10 11 -10 3 0 -7 -9 -13 -19 -13 -11 0 -22 6 -25 13 -3 6 -4 -7 -2 -30
2 -24 0 -43 -5 -43 -5 0 -9 4 -9 9 0 5 -7 11 -15 15 -8 3 -14 1 -12 -4 1 -5
-7 -16 -18 -25 -13 -11 -16 -18 -8 -21 7 -3 10 -11 7 -19 -3 -7 -1 -16 5 -20
6 -3 11 1 11 9 0 9 8 16 18 16 14 0 15 -2 2 -10 -13 -8 -13 -10 2 -10 9 0 19
6 22 13 3 6 3 2 0 -10 -3 -13 -1 -23 5 -23 6 0 11 6 11 13 0 19 41 36 79 33
17 -1 31 1 31 6 0 4 5 8 12 8 9 0 9 -3 0 -12 -7 -7 -12 -21 -11 -32 0 -12 3
-15 6 -8 2 6 8 10 12 8 4 -3 8 0 8 7 0 7 3 22 7 35 8 23 7 24 -36 26 -23 2
-25 0 -15 -14 6 -8 7 -12 3 -8 -5 4 -15 3 -22 -3 -10 -8 -11 -5 -7 13 3 13 11
30 17 38 9 13 9 13 -5 2 -13 -10 -19 -9 -29 3 -10 12 -10 15 4 15 9 0 16 4 16
10 0 5 15 1 34 -10 29 -16 35 -16 40 -4 3 8 16 15 28 15 17 1 19 2 5 6 -10 3
-14 10 -11 16 5 8 2 8 -7 0 -15 -15 -43 -17 -34 -4 3 6 -3 9 -14 8 -11 0 -17
-5 -14 -11z m-60 -86 c-9 -13 -17 -17 -22 -11 -3 6 -1 11 4 11 6 0 11 10 11
22 0 16 3 19 11 11 8 -8 7 -17 -4 -33z m-47 -13 c10 -4 7 -6 -7 -6 -13 -1 -23
1 -23 3 0 2 -3 13 -6 23 -6 16 -5 17 7 2 8 -9 21 -19 29 -22z"/>
<path d="M3345 948 c4 -11 2 -18 -4 -18 -8 0 -9 -5 -1 -19 16 -32 11 -38 -10
-11 -17 22 -19 23 -16 5 2 -11 -1 -23 -7 -26 -5 -4 -7 -15 -3 -25 7 -18 8 -18
17 -1 6 9 14 17 18 17 15 0 22 -33 9 -42 -10 -6 -10 -8 -1 -8 7 0 17 9 23 20
7 13 21 20 40 20 23 0 30 -5 35 -29 6 -30 35 -64 35 -42 0 6 -4 11 -10 11 -5
0 -10 11 -10 24 0 14 -5 28 -10 31 -6 4 -8 11 -5 16 3 5 -1 6 -9 3 -8 -3 -23
-1 -34 5 -13 7 -22 7 -29 0 -8 -8 -11 0 -11 26 0 20 -5 42 -12 49 -8 8 -10 7
-5 -6z"/>
<path d="M3251 939 c-2 -24 25 -44 32 -25 4 10 1 13 -8 10 -7 -3 -15 2 -18 13
-4 14 -5 15 -6 2z"/>
<path d="M3718 892 c-4 -16 -1 -19 18 -18 13 0 24 4 24 9 0 4 5 7 11 7 6 0 8
-7 5 -16 -5 -14 -4 -15 9 -4 8 7 15 16 15 20 0 15 -33 20 -47 8 -11 -9 -16 -9
-22 1 -6 9 -10 7 -13 -7z"/>
<path d="M3267 888 c-15 -5 -25 -14 -22 -18 3 -5 12 -7 20 -3 8 3 15 1 15 -4
0 -5 7 -18 16 -29 14 -18 15 -18 4 5 -7 12 -10 32 -7 42 3 10 4 19 4 18 -1 0
-14 -5 -30 -11z"/>
<path d="M3570 808 c0 -19 2 -20 10 -8 13 19 13 30 0 30 -5 0 -10 -10 -10 -22z"/>
<path d="M3360 796 c0 -2 7 -9 15 -16 9 -7 15 -8 15 -2 0 5 -7 12 -15 16 -8 3
-15 4 -15 2z"/>
<path d="M3412 755 c-7 -9 -8 -15 -2 -15 5 0 10 -7 10 -16 0 -8 4 -12 10 -9
10 6 10 55 0 55 -3 -1 -11 -7 -18 -15z"/>
<path d="M3498 713 c7 -3 16 -2 19 1 4 3 -2 6 -13 5 -11 0 -14 -3 -6 -6z"/>
<path d="M3448 693 c7 -3 16 -2 19 1 4 3 -2 6 -13 5 -11 0 -14 -3 -6 -6z"/>
<path d="M3520 691 c0 -6 4 -12 8 -15 5 -3 9 1 9 9 0 8 -4 15 -9 15 -4 0 -8
-4 -8 -9z"/>
<path d="M3415 630 c-5 -15 -3 -25 6 -31 17 -11 24 13 11 37 -9 15 -10 15 -17
-6z"/>
<path d="M3547 639 c7 -7 15 -10 18 -7 3 3 -2 9 -12 12 -14 6 -15 5 -6 -5z"/>
<path d="M3503 621 c-13 -21 -8 -51 8 -51 13 0 11 18 -3 23 -7 3 -3 6 9 6 12
1 25 6 29 13 5 7 2 9 -9 5 -9 -3 -17 0 -19 9 -2 11 -6 10 -15 -5z"/>
<path d="M3458 623 c7 -3 16 -2 19 1 4 3 -2 6 -13 5 -11 0 -14 -3 -6 -6z"/>
<path d="M3451 600 c-1 -23 15 -45 23 -31 4 6 3 11 -3 11 -5 0 -12 8 -14 18
-3 12 -5 13 -6 2z"/>
<path d="M3400 565 c0 -8 9 -12 23 -9 12 2 16 2 10 -2 -15 -6 -18 -44 -4 -44
12 0 22 41 13 54 -10 16 -42 16 -42 1z"/>
<path d="M3604 545 c11 -8 22 -12 25 -9 6 6 -19 24 -34 24 -5 -1 -1 -7 9 -15z"/>
<path d="M3465 540 c-3 -5 -1 -10 4 -10 6 0 11 5 11 10 0 6 -2 10 -4 10 -3 0
-8 -4 -11 -10z"/>
<path d="M3583 503 c-7 -3 -13 -9 -13 -15 0 -6 6 -6 15 2 12 10 15 9 15 -8 0
-17 -6 -20 -37 -19 -27 2 -37 6 -35 16 3 12 0 12 -12 1 -21 -17 -20 -33 4 -48
13 -8 20 -8 20 -1 0 5 5 7 10 4 6 -3 10 0 10 7 0 9 3 9 10 -2 5 -8 18 -15 28
-16 15 -1 18 6 18 35 -1 27 3 35 14 33 8 -2 12 0 7 4 -9 10 -38 13 -54 7z"/>
<path d="M3443 475 c0 -8 4 -15 9 -15 4 0 8 4 8 9 0 6 -4 12 -8 15 -5 3 -9 -1
-9 -9z"/>
<path d="M3404 466 c-9 -10 -5 -15 20 -26 43 -18 63 -19 63 -4 0 17 -13 18
-22 3 -5 -7 -13 -4 -26 7 -10 9 -16 21 -13 25 8 14 -10 10 -22 -5z"/>
</g>
</svg>
